<svg xmlns="http://www.w3.org/2000/svg" version="1.1" width="71" height="14.747247247247246" viewBox="20 20 1998 415" role="img">
<title>wearless Medium black wordmark</title><path d="M0 0 C15.51 0 31.02 0 47 0 C47 135.3 47 270.6 47 410 C43.8356 410.7911 41.756 411.1228 38.5986 411.1135 C38.1683 411.1135 38.1683 411.1135 35.9908 411.1133 C35.0709 411.1081 34.1509 411.103 33.2031 411.0977 C32.7287 411.0969 32.7287 411.0969 30.3281 411.0934 C27.302 411.0878 24.276 411.0752 21.25 411.0625 C19.1966 411.0575 17.1432 411.0529 15.0898 411.0488 C10.0599 411.0378 5.0299 411.0211 0 411 C-0.3294 339.6357 -0.6476 268.2713 -1.1228 75.5892 C-1.1241 69.4378 -1.1279 63.2865 -1.1326 57.1351 C-1.1386 49.0102 -1.1388 40.8853 -1.1343 32.7603 C-1.1329 29.8368 -1.1335 26.9133 -1.1362 23.9898 C-1.139 20.6831 -1.1372 17.3765 -1.1314 14.0699 C-1.1294 12.3125 -1.1324 10.5551 -1.1355 8.7977 C-1.1327 7.7725 -1.1299 6.7472 -1.127 5.691 C-1.1266 4.802 -1.1262 3.913 -1.1258 2.9971 C-1 1 -1 1 0 0 Z " fill="#000000" transform="translate(1201,20)" />
<path d="M0 0 C0.8057 0.6626 1.6113 1.3252 2.4414 2.0078 C30.5468 25.8468 42.7651 62.9778 45.7266 98.6836 C46.3728 107.9509 46.0303 116.7273 45 126 C-25.62 126.33 -96.24 126.66 -169 127 C-165.4848 144.5762 -165.4848 144.5762 -163.25 150.25 C-162.994 150.9127 -162.7379 151.5755 -162.4741 152.2583 C-160.0186 158.3667 -156.8799 163.6662 -153 169 C-152.4289 169.8276 -151.8579 170.6552 -151.2695 171.5078 C-138.4135 188.9964 -117.673 199.4814 -96.6875 203.25 C-73.313 206.4041 -48.8829 202.1666 -29.5029 188.1494 C-20.4182 181.2015 -10.8427 172.5245 -6 162 C-1.4149 163.3707 2.4789 165.2202 6.6055 167.625 C7.2114 167.9726 7.8172 168.3201 8.4415 168.6782 C10.3598 169.7804 12.2736 170.8902 14.1875 172 C15.4835 172.7453 16.7797 173.4901 18.0762 174.2344 C28.2673 180.0994 28.2673 180.0994 31 182 C30.3959 186.1876 28.1069 189.0942 25.6875 192.4375 C25.2438 193.0515 24.8001 193.6655 24.343 194.2981 C4.1099 221.7219 -24.44 239.9239 -58.207 245.355 C-94.6207 250.7198 -133.6136 244.4508 -163.9514 222.6167 C-166.3567 220.8093 -168.6931 218.931 -171 217 C-171.8598 216.2807 -172.7196 215.5614 -173.6055 214.8203 C-200.3472 191.5198 -216.1134 159.1702 -220 124 C-220.1104 121.6284 -220.186 119.2853 -220.2031 116.9141 C-220.2066 116.5868 -220.2066 116.5868 -220.2244 114.9307 C-220.2418 112.8287 -220.2482 110.727 -220.25 108.625 C-220.2507 107.9062 -220.2513 107.1875 -220.252 106.447 C-220.2359 95.6625 -219.7 85.4838 -217 75 C-216.8337 74.2934 -216.6674 73.5869 -216.4961 72.8589 C-211.337 50.9661 -201.4835 32.1223 -187 15 C-186.7248 14.6578 -186.7248 14.6578 -185.332 12.9258 C-180.9311 7.6049 -175.8549 3.3045 -170.4175 -0.9019 C-169.072 -1.9442 -167.7406 -3.0049 -166.4102 -4.0664 C-158.8258 -9.8944 -150.6434 -13.9813 -142 -18 C-141.0139 -18.4744 -140.0277 -18.9487 -139.0117 -19.4375 C-94.9932 -39.361 -36.4342 -32.0122 0 0 Z M-124 21 C-124.8263 21.4409 -125.6526 21.8817 -126.5039 22.3359 C-146.3795 33.5957 -160.4974 51.3844 -166.9688 73.2773 C-168.1184 77.6685 -169 81.4418 -169 86 C-114.55 86 -60.1 86 -4 86 C-6.0804 63.1156 -14.68 43.917 -32.5195 28.9023 C-58.3475 9.0941 -95.0691 5.3691 -124 21 Z " fill="#000000" transform="translate(639,188)" />
<path d="M0 0 C0.5048 0.4009 1.0097 0.8018 1.5298 1.2148 C9.918 7.9234 17.9993 14.9989 24 24 C24.33 10.8 24.66 -2.4 25 -16 C41.17 -16 57.34 -16 74 -16 C74.6269 -7.8504 75.1453 0.0362 75.1203 8.1682 C75.1207 8.6903 75.1207 8.6903 75.1228 11.3325 C75.1242 14.1878 75.1211 17.043 75.1161 19.8982 C75.1117 22.9935 75.1132 26.0887 75.114 29.1839 C75.1145 34.5323 75.1114 39.8807 75.1057 45.2291 C75.0976 52.9617 75.095 60.6943 75.0937 68.427 C75.0916 80.976 75.0849 93.525 75.0754 106.074 C75.0662 118.2563 75.0592 130.4386 75.0549 142.6208 C75.0548 142.997 75.0548 142.997 75.0541 144.9005 C75.0528 148.675 75.0516 152.4494 75.0503 156.2239 C75.04 187.4826 75.0224 218.7413 75 250 C72.6117 251.1941 71.1396 251.1268 68.4744 251.1294 C67.5368 251.1325 66.5992 251.1357 65.6332 251.1389 C64.6186 251.1369 63.6039 251.1349 62.5586 251.1328 C61.5206 251.1338 60.4826 251.1347 59.4131 251.1357 C57.2166 251.1364 55.02 251.1345 52.8235 251.1304 C49.448 251.125 46.0727 251.1303 42.6973 251.1367 C40.5677 251.1361 38.4382 251.1348 36.3086 251.1328 C35.8003 251.1338 35.8003 251.1338 33.2279 251.1389 C32.2934 251.1358 31.359 251.1326 30.3962 251.1294 C29.5695 251.1286 28.7428 251.1278 27.8911 251.127 C26 251 26 251 25 250 C24.8784 248.7115 24.8224 247.4167 24.7947 246.1228 C24.7747 245.302 24.7548 244.4813 24.7342 243.6356 C24.7259 243.1898 24.7259 243.1898 24.6836 240.9336 C24.6732 240.4793 24.6732 240.4793 24.6206 238.1802 C24.555 235.266 24.4962 232.3518 24.4375 229.4375 C24.3943 227.4668 24.3507 225.4961 24.3066 223.5254 C24.1993 218.6837 24.0976 213.8419 24 209 C23.6617 209.3992 23.3234 209.7985 22.9748 210.2098 C21.4191 212.0429 19.86 213.873 18.3008 215.7031 C18.0348 216.0171 18.0348 216.0171 16.6886 217.606 C-2.8629 240.5196 -29.3142 252.2864 -59 255 C-78.5205 256.2835 -97.6558 253.8137 -116 247 C-116.6001 246.7797 -117.2001 246.5595 -117.8184 246.3325 C-148.6506 234.7578 -172.9019 209.4349 -186.6184 179.9524 C-204.1722 140.5563 -203.743 98.2634 -188.9146 58.1323 C-177.7191 29.2044 -156.363 6.2181 -129 -8 C-128.7347 -8.1391 -128.7347 -8.1391 -127.3921 -8.8433 C-88.7852 -28.7659 -34.6979 -27.8024 0 0 Z M-126.4155 48.5244 C-136.8488 60.5055 -143.9166 74.707 -148 90 C-148.1637 90.6086 -148.3274 91.2172 -148.4961 91.8442 C-155.0711 117.5396 -151.3603 146.1561 -138.1819 169.1545 C-134.1844 175.8197 -129.4141 181.439 -124 187 C-123.5617 187.477 -123.1234 187.9539 -122.6719 188.4453 C-121.5048 189.6863 -120.2494 190.842 -119 192 C-118.6822 192.2958 -118.6822 192.2958 -117.0742 193.793 C-100.1977 208.4571 -78.209 213.4022 -56.3174 212.1802 C-33.1966 210.3825 -12.262 198.8736 3.0635 181.6599 C21.0371 160.4716 27.8537 133.3868 26 106 C23.6381 80.4341 11.2021 56.9601 -8 40 C-43.2195 11.5653 -95.5327 15.266 -126.4155 48.5244 Z " fill="#000000" transform="translate(903,180)" />
<path d="M0 0 C9.1795 7.9308 17.884 16.3414 24.2219 26.7559 C24.5397 27.2723 24.8574 27.7887 25.1848 28.3208 C41.3676 54.8306 48.4515 84.4718 48.3469 115.3809 C48.3505 116.5749 48.3544 117.7689 48.3586 118.9629 C48.358 119.523 48.358 119.523 48.3547 122.3574 C48.3536 123.3714 48.3525 124.3854 48.3513 125.4302 C48.2219 127.7559 48.2219 127.7559 47.2219 128.7559 C44.4655 128.8537 41.7342 128.8858 38.9774 128.8761 C38.1027 128.877 37.2279 128.8778 36.3267 128.8787 C33.3724 128.8804 30.4182 128.8748 27.4639 128.8694 C25.3554 128.8691 23.2469 128.8693 21.1384 128.8698 C16.587 128.8701 12.0356 128.8672 7.4843 128.8616 C0.9037 128.8535 -5.6769 128.8509 -12.2575 128.8496 C-22.9331 128.8474 -33.6086 128.8407 -44.2842 128.8313 C-54.6569 128.8221 -65.0296 128.815 -75.4023 128.8108 C-75.7218 128.8107 -75.7218 128.8107 -77.3386 128.81 C-80.5439 128.8087 -83.7492 128.8074 -86.9545 128.8062 C-113.5624 128.7958 -140.1702 128.7781 -166.7781 128.7559 C-166.1671 131.4474 -165.5475 134.1369 -164.9265 136.8262 C-164.7556 137.5794 -164.5848 138.3326 -164.4087 139.1086 C-159.2059 161.533 -146.9457 180.8312 -127.4409 193.3311 C-106.8475 205.9788 -82.4128 210.0571 -58.7781 204.7559 C-44.3635 201.1817 -32.1758 195.3919 -20.7781 185.7559 C-20.3155 185.396 -19.8529 185.0362 -19.3762 184.6655 C-15.4547 181.5608 -12.4953 178.1421 -9.5281 174.1309 C-9.095 173.5585 -8.6618 172.9862 -8.2156 172.3965 C-6.3292 169.8929 -4.5002 167.376 -2.7781 164.7559 C1.4468 166.0392 4.9887 167.6084 8.8118 169.873 C9.3194 170.1715 9.827 170.4699 10.35 170.7774 C11.9563 171.7233 13.5579 172.6768 15.1594 173.6309 C16.2288 174.2629 17.2984 174.8944 18.3684 175.5254 C20.4105 176.73 22.4512 177.937 24.491 179.1455 C27.717 181.0478 30.9629 182.9108 34.2219 184.7559 C32.8062 188.8251 30.7638 192.0539 28.1594 195.4434 C27.7624 195.9652 27.3654 196.487 26.9563 197.0247 C22.9761 202.1875 18.6973 207.014 14.2219 211.7559 C13.5374 212.5048 12.8529 213.2537 12.1477 214.0254 C-7.0648 234.3033 -33.5507 244.9822 -60.7781 248.7559 C-61.6417 248.8873 -62.5054 249.0188 -63.3953 249.1543 C-99.2624 253.7463 -136.6787 244.0877 -165.2744 222.1111 C-167.1174 220.6696 -168.9498 219.2159 -170.7781 217.7559 C-171.5928 217.1165 -172.4075 216.4771 -173.2468 215.8184 C-177.9944 211.8997 -181.8404 207.3078 -185.6296 202.4863 C-186.908 200.8616 -188.208 199.253 -189.5515 197.6816 C-212.4151 170.3634 -220.3444 131.7386 -217.5554 96.981 C-216.3535 85.12 -213.9027 73.9315 -209.7781 62.7559 C-209.5472 62.1195 -209.3163 61.4832 -209.0784 60.8276 C-196.6076 26.861 -173.1546 0.8281 -140.5906 -14.9316 C-96.5312 -35.2001 -38.0429 -31.759 0 0 Z M-145.8015 42.3066 C-152.4154 49.7647 -157.3465 58.0618 -161.1531 67.2559 C-161.3799 67.7997 -161.6067 68.3435 -161.8403 68.9038 C-164.3287 75.4089 -165.2843 81.7848 -166.7781 88.7559 C-111.9981 88.7559 -57.2181 88.7559 -0.7781 88.7559 C-3.2943 66.1098 -11.917 45.8553 -29.9688 31.2251 C-65.0938 4.3507 -116.1201 10.4623 -145.8015 42.3066 Z " fill="#000000" transform="translate(1504.778076171875,185.244140625)" />
<path d="M0 0 C1.4789 1.2893 2.9383 2.6013 4.375 3.9375 C4.7508 4.2681 4.7508 4.2681 6.6523 5.9414 C13.9312 12.6977 20.4862 21.7143 24.375 30.9375 C24.375 31.9275 24.375 32.9175 24.375 33.9375 C23.5332 34.3709 22.6913 34.8044 21.824 35.251 C18.6716 36.8746 15.5204 38.5002 12.3694 40.1265 C11.0109 40.8272 9.6522 41.5274 8.2932 42.2271 C6.3288 43.2385 4.3655 44.2519 2.4023 45.2656 C2.1032 45.4194 2.1032 45.4194 0.5896 46.1973 C-3.0541 48.0818 -6.6076 50.0692 -10.1222 52.1859 C-11.625 52.9375 -11.625 52.9375 -13.8633 52.9961 C-16.4148 51.4629 -17.3481 49.5781 -18.8125 47 C-27.5226 32.5149 -40.3174 22.6106 -56.8398 18.3689 C-63.0878 16.9849 -69.1122 16.5863 -75.5 16.625 C-76.4645 16.6299 -77.4291 16.6348 -78.4229 16.6399 C-92.0895 16.8644 -104.6128 20.4238 -114.8672 29.9102 C-120.2273 36.0921 -123.0136 43.8107 -122.8359 51.9844 C-122.0501 59.2607 -119.1033 65.1133 -113.625 69.9375 C-98.5426 81.1128 -79.1082 85.8897 -61.4412 91.4125 C-21.4542 103.9162 -21.4542 103.9162 -8.8125 110.8125 C-8.1963 111.1456 -7.5802 111.4788 -6.9453 111.822 C-1.3164 114.9545 3.5776 118.6225 8.375 122.9375 C9.0079 123.4892 9.6409 124.0409 10.293 124.6094 C22.9834 136.3754 29.1254 153.0383 30.375 169.9375 C30.4291 170.5872 30.4833 171.2369 30.5391 171.9062 C31.0609 184.2409 27.9161 196.9983 22.375 207.9375 C22.1655 208.3558 22.1655 208.3558 21.1055 210.4727 C9.9477 230.7625 -9.8799 242.7502 -31.5498 249.0957 C-66.5703 258.6923 -105.8247 255.8076 -137.625 237.9375 C-138.1535 237.6409 -138.682 237.3442 -139.2266 237.0386 C-146.4953 232.8738 -152.6649 227.8008 -158.625 221.9375 C-159.3984 221.177 -160.1719 220.4164 -160.9688 219.6328 C-169.3009 210.9297 -174.6589 200.7777 -179.1875 189.6875 C-179.4514 189.0434 -179.7152 188.3992 -179.9871 187.7356 C-180.5988 186.1602 -181.1204 184.5504 -181.625 182.9375 C-180.0772 179.8419 -177.0605 179.2164 -174 177.9375 C-172.5557 177.3236 -171.1117 176.7089 -169.668 176.0938 C-169.2699 175.9249 -169.2699 175.9249 -167.2554 175.0703 C-164.3406 173.815 -161.4455 172.5196 -158.5508 171.2188 C-157.5184 170.7586 -156.486 170.2984 -155.4224 169.8242 C-153.3643 168.9065 -151.3092 167.9821 -149.2573 167.0508 C-148.31 166.6318 -147.3627 166.2129 -146.3867 165.7812 C-145.5407 165.4016 -144.6947 165.022 -143.823 164.6309 C-141.625 163.9375 -141.625 163.9375 -138.625 164.9375 C-137.4958 167.3456 -136.5138 169.7106 -135.5625 172.1875 C-128.4636 189.396 -116.3014 200.7736 -99.3281 208.2417 C-81.4839 215.5318 -61.0282 214.5149 -43.25 207.6875 C-34.0611 203.5624 -25.158 196.8058 -20.75 187.5 C-18.328 180.089 -17.9294 169.4363 -21.3125 162.3125 C-22.0456 161.1626 -22.8146 160.0343 -23.625 158.9375 C-23.9292 158.4348 -24.2334 157.932 -24.5469 157.4141 C-36.3503 140.2537 -67.1938 135.4378 -85.6555 129.6475 C-150.3331 109.3423 -150.3331 109.3423 -165.625 80.9375 C-173.3499 64.1401 -173.4534 44.9676 -167.5586 27.5625 C-160.6772 10.1207 -149.0965 -2.4775 -132.625 -11.0625 C-132.096 -11.3393 -131.567 -11.6162 -131.022 -11.9014 C-91.6607 -31.865 -34.9314 -27.0071 0 0 Z " fill="#000000" transform="translate(1755.625,181.0625)" />
<path d="M0 0 C0.4305 0.3793 0.8611 0.7586 1.3047 1.1494 C2.0369 1.7707 2.7691 2.3921 3.5234 3.0322 C7.964 7.1027 11.3197 11.8101 14.6797 16.7744 C14.8944 17.0913 14.8944 17.0913 15.9812 18.6951 C18.4232 22.429 20.1009 25.8501 21.3047 30.1494 C14.6369 34.5924 7.5845 38.263 0.4758 41.9353 C-1.5243 42.9705 -3.519 44.0158 -5.5137 45.0615 C-6.7887 45.7229 -8.0641 46.3838 -9.3398 47.0439 C-9.6367 47.2002 -9.6367 47.2002 -11.1391 47.9907 C-13.8876 49.3991 -15.5554 50.1494 -18.6953 50.1494 C-20.0845 48.1683 -21.2686 46.2514 -22.4453 44.1494 C-31.3127 29.1345 -43.6058 20.0686 -60.5078 15.3369 C-78.7597 11.5163 -97.7023 13.2897 -113.6953 23.1494 C-119.9179 27.9256 -123.2453 33.7993 -125.6953 41.1494 C-126.4288 49.1575 -125.5751 55.1261 -121.6953 62.1494 C-121.5496 62.5 -121.5496 62.5 -120.8125 64.2744 C-119.407 66.6334 -118.1916 67.0763 -115.6953 68.1494 C-114.2544 69.0606 -112.8172 69.9779 -111.3828 70.8994 C-96.3886 79.9003 -78.5396 84.4531 -61.9375 89.5361 C4.0045 109.7487 4.0045 109.7487 18.6921 137.0173 C22.3108 144.1495 25.0169 151.2155 26.3047 159.1494 C26.4568 160.0762 26.6089 161.0031 26.7656 161.958 C28.9782 180.0767 24.3323 200.2413 13.04 214.7773 C9.9842 218.4245 6.693 221.8127 3.3047 225.1494 C2.976 225.4833 2.976 225.4833 1.3125 227.1729 C-4.5377 232.7218 -11.5846 236.4653 -18.6953 240.1494 C-19.6067 240.6251 -20.518 241.1007 -21.457 241.5908 C-52.3712 255.9873 -93.6553 254.4854 -125.2104 243.1328 C-136.2008 238.7833 -146.8302 233.0084 -155.6953 225.1494 C-156.3282 224.657 -156.9612 224.1646 -157.6133 223.6572 C-167.8554 215.439 -174.778 204.7914 -180.4453 193.0869 C-180.8879 192.1825 -181.3306 191.278 -181.7866 190.3462 C-182.1845 189.4859 -182.5823 188.6256 -182.9922 187.7393 C-183.3464 186.9748 -183.7005 186.2103 -184.0654 185.4226 C-184.9029 182.4004 -184.9831 181.0461 -183.6953 178.1494 C-181.2788 176.4218 -178.6295 175.34 -175.8984 174.1963 C-175.1127 173.8506 -174.3269 173.5049 -173.5173 173.1487 C-171.8533 172.4207 -170.1852 171.7017 -168.5137 170.9912 C-165.9615 169.9063 -163.4216 168.7963 -160.8828 167.6807 C-159.2637 166.976 -157.6439 166.2729 -156.0234 165.5713 C-155.2649 165.2422 -154.5064 164.913 -153.7249 164.5739 C-150.0653 163.022 -146.6604 161.7226 -142.6953 161.1494 C-142.4156 161.8764 -142.1359 162.6035 -141.8477 163.3525 C-133.7545 183.6505 -122.7969 196.5613 -102.7461 205.458 C-84.5933 212.5275 -63.0395 212.2974 -45.1016 204.4346 C-35.466 199.2883 -26.6942 192.2493 -23.168 181.5439 C-21.4331 172.7547 -21.7423 163.8388 -26.6953 156.1494 C-36.1916 143.0288 -54.9414 137.7966 -69.7758 133.14 C-72.1948 132.3799 -74.61 131.6085 -77.0244 130.834 C-80.3244 129.7759 -83.6252 128.7207 -86.9272 127.6689 C-153.3913 106.4927 -153.3913 106.4927 -168.7881 78.9248 C-171.0295 74.5385 -172.5003 69.9223 -173.6953 65.1494 C-173.8848 64.4159 -174.0743 63.6825 -174.2695 62.9268 C-177.1693 44.0118 -173.7306 25.6372 -163.0703 9.7236 C-161.3653 7.4385 -159.5809 5.2877 -157.6953 3.1494 C-157.0392 2.3992 -156.383 1.6489 -155.707 0.876 C-118.4633 -39.0231 -38.9032 -33.9329 0 0 Z " fill="#000000" transform="translate(1990.6953125,183.8505859375)" />
<path d="M0 0 C0 14.85 0 29.7 0 45 C-2.8559 45.952 -4.4195 46.0853 -7.3594 45.9922 C-30.6627 45.4755 -52.427 50.3163 -69.9219 66.8672 C-89.9547 87.4272 -97.2937 115.3345 -97.303 143.4033 C-97.3107 144.7928 -97.3192 146.1822 -97.3286 147.5716 C-97.3467 150.5333 -97.3588 153.4949 -97.3661 156.4566 C-97.3777 161.1374 -97.4032 165.8182 -97.4304 170.499 C-97.4718 177.8922 -97.5044 185.2854 -97.5329 192.6787 C-97.5841 205.9528 -97.6459 219.2269 -97.7182 232.501 C-97.7432 237.158 -97.7626 241.815 -97.7776 246.472 C-97.7878 249.3554 -97.8019 252.2388 -97.8171 255.1221 C-97.8233 256.4633 -97.8277 257.8046 -97.8303 259.1458 C-97.8341 260.9687 -97.8439 262.7915 -97.8552 264.6143 C-97.8572 265.1253 -97.8572 265.1253 -97.8669 267.7112 C-98 270 -98 270 -99 271 C-114.18 271 -129.36 271 -145 271 C-145 182.89 -145 94.78 -145 4 C-129.49 4 -113.98 4 -98 4 C-97.67 17.53 -97.34 31.06 -97 45 C-94.36 41.37 -91.72 37.74 -89 34 C-72.8348 14.7891 -51.7479 2.2668 -26.4727 -0.7969 C-5.9856 -1.9952 -5.9856 -1.9952 0 0 Z " fill="#000000" transform="translate(1167,160)" />
<path d="M0 0 C17.16 0 34.32 0 52 0 C53.3406 4.7231 54.6813 9.4462 56.0625 14.3125 C60.2449 28.9783 64.5063 43.6201 68.8125 58.25 C69.1177 59.2871 69.4229 60.3241 69.7374 61.3926 C73.6848 74.7992 77.6506 88.2002 81.6242 101.599 C82.319 103.9424 83.0136 106.2858 83.708 108.6292 C83.9383 109.4064 84.1686 110.1835 84.4059 110.9842 C84.8717 112.5561 85.3375 114.1279 85.8032 115.6997 C86.935 119.5186 88.0678 123.3372 89.2028 127.1552 C95.3165 147.7207 101.2514 168.3293 107 189 C110.2732 181.3373 113.284 173.6497 116.0117 165.7734 C116.5728 164.169 117.1339 162.5646 117.6952 160.9603 C118.2873 159.2659 118.8779 157.5709 119.4679 155.8758 C121.5705 149.837 123.6879 143.8034 125.8047 137.7695 C126.0209 137.1531 126.237 136.5366 126.4597 135.9014 C131.0091 122.9304 135.6453 109.9916 140.3125 97.0625 C140.6853 96.0297 141.058 94.9969 141.442 93.9328 C142.9148 89.8528 144.388 85.7728 145.8621 81.6932 C149.0916 72.7534 152.301 63.8064 155.5073 54.8582 C159.9915 42.3479 164.485 29.8409 169.0093 17.345 C169.5402 15.8776 170.0701 14.4099 170.5991 12.9419 C171.3199 10.942 172.0442 8.9435 172.7695 6.9453 C172.9823 6.3526 173.1952 5.76 173.4144 5.1493 C174.8857 1.1143 174.8857 1.1143 176 0 C177.3203 -0.0926 178.6455 -0.1175 179.969 -0.1135 C180.8098 -0.1134 181.6506 -0.1134 182.5169 -0.1133 C183.4304 -0.1081 184.3439 -0.103 185.2852 -0.0977 C186.216 -0.0962 187.1468 -0.0948 188.1058 -0.0934 C191.0914 -0.0878 194.0769 -0.0752 197.0625 -0.0625 C199.0814 -0.0575 201.1003 -0.0529 203.1191 -0.0488 C208.0795 -0.0378 213.0397 -0.021 218 0 C220.2533 5.89 222.3427 11.8261 224.3711 17.7969 C224.5301 18.2634 224.5301 18.2634 225.3347 20.6246 C226.3704 23.6659 227.4041 26.7079 228.4375 29.75 C228.7955 30.8028 229.1535 31.8555 229.5223 32.9402 C235.2449 49.7718 240.9064 66.6227 246.5043 83.4962 C248.5537 89.6688 250.6187 95.8361 252.6865 102.0027 C262.3821 130.9228 271.8592 159.8985 281 189 C282.8231 186.554 283.7166 184.1627 284.6414 181.2646 C284.9538 180.2935 285.2662 179.3223 285.5881 178.3217 C285.9238 177.2616 286.2596 176.2016 286.6055 175.1094 C286.9642 173.9882 287.3234 172.8672 287.6829 171.7463 C288.6535 168.7162 289.6184 165.6842 290.5822 162.6519 C291.6017 159.4484 292.6267 156.2466 293.6511 153.0447 C295.9195 145.9512 298.1804 138.8554 300.4398 131.7591 C302.7702 124.441 305.1044 117.124 307.4377 109.8068 C308.0224 107.9725 308.6068 106.1381 309.1909 104.3035 C313.236 91.5991 317.3182 78.907 321.4258 66.2227 C321.9012 64.754 322.3766 63.2853 322.8521 61.8166 C324.9607 55.3036 327.0706 48.7911 329.186 42.2803 C330.2742 38.9296 331.3603 35.5783 332.4453 32.2266 C332.6515 31.5901 332.8576 30.9535 333.0701 30.2978 C335.724 22.0936 338.307 13.8745 340.6377 5.5714 C341.9032 1.0968 341.9032 1.0968 343 0 C344.5961 -0.0933 346.1963 -0.1175 347.7952 -0.1135 C348.8161 -0.1134 349.8371 -0.1134 350.8891 -0.1133 C351.9995 -0.1081 353.1099 -0.103 354.2539 -0.0977 C354.8192 -0.0969 354.8192 -0.0969 357.6799 -0.0934 C360.6901 -0.0895 363.7002 -0.0797 366.7103 -0.0687 C369.7802 -0.0584 372.8501 -0.0539 375.9199 -0.0488 C381.9466 -0.0381 387.9733 -0.021 394 0 C384.417 29.1531 374.4161 58.1613 364.4176 87.1736 C361.2391 96.3972 358.0674 105.6231 354.901 114.8509 C346.4878 139.3697 338.0725 163.886 329.4677 188.3383 C325.6281 199.2557 321.8923 210.2027 318.25 221.1875 C317.8058 222.5247 317.3616 223.8618 316.9172 225.199 C315.144 230.5373 313.371 235.8757 311.6074 241.2173 C310.4679 244.6646 309.3158 248.1075 308.1552 251.5478 C307.7222 252.838 307.2935 254.1296 306.8693 255.4227 C306.2884 257.1919 305.693 258.9556 305.0938 260.7188 C304.7605 261.7184 304.4273 262.7181 304.084 263.748 C303.9051 264.1196 303.9051 264.1196 303 266 C300.3436 266.8855 298.8815 267.1225 296.1711 267.1135 C295.4106 267.1134 294.65 267.1134 293.8664 267.1133 C293.0507 267.1081 292.235 267.103 291.3945 267.0977 C290.5553 267.0962 289.7161 267.0948 288.8515 267.0934 C286.1718 267.0878 283.4922 267.0752 280.8125 267.0625 C278.9954 267.0575 277.1784 267.0529 275.3613 267.0488 C270.9075 267.0378 266.4538 267.0205 262 267 C259.1107 260.7904 256.6962 254.5298 254.5312 248.0352 C254.2144 247.0971 253.8976 246.1591 253.5711 245.1927 C252.8946 243.189 252.2198 241.1847 251.5468 239.1798 C249.7644 233.8719 247.9683 228.5687 246.1719 223.2656 C245.8139 222.2083 245.456 221.151 245.0872 220.0617 C242.053 211.1169 238.9221 202.2091 235.75 193.3125 C231.2719 180.7331 226.9931 168.0962 222.7957 155.4207 C218.4486 142.3002 214.0164 129.2095 209.5625 116.125 C209.3919 115.6232 209.3919 115.6232 208.5287 113.0836 C207.5425 110.1829 206.5548 107.2828 205.5664 104.3828 C205.2568 103.4733 204.9472 102.5637 204.6283 101.6266 C203.2599 97.6213 201.8755 93.625 200.4175 89.6514 C200.2988 89.3272 200.2988 89.3272 199.6985 87.687 C199.0815 86.014 198.4551 84.3445 197.8279 82.6753 C197.0779 80.2518 196.8055 78.5073 197 76 C196.34 76 195.68 76 195 76 C194.8272 76.6669 194.6544 77.3337 194.4764 78.0208 C192.6828 84.7874 190.5781 91.3736 188.2266 97.9648 C187.8665 98.9838 187.5064 100.0028 187.1355 101.0526 C186.1691 103.7843 185.1992 106.5148 184.2273 109.2446 C183.4149 111.5281 182.6054 113.8125 181.7959 116.097 C172.8989 141.2008 163.8701 166.2563 154.6721 191.2515 C151.6431 199.4888 148.641 207.7357 145.649 215.9865 C144.9718 217.854 144.2943 219.7214 143.6167 221.5887 C143.1605 222.8459 142.7044 224.103 142.2483 225.3601 C142.0212 225.986 141.7941 226.6118 141.5602 227.2567 C140.1973 231.0134 138.8363 234.7708 137.4765 238.5287 C136.6172 240.9022 135.7562 243.2751 134.8948 245.6479 C134.2979 247.2939 133.7031 248.9407 133.1083 250.5874 C127.6216 265.6892 127.6216 265.6892 125 267 C123.7335 267.0885 122.4625 267.1176 121.1929 267.1135 C120.4122 267.1134 119.6316 267.1134 118.8272 267.1133 C117.9845 267.1081 117.1417 267.103 116.2734 267.0977 C115.842 267.0969 115.842 267.0969 113.6588 267.0934 C110.8975 267.0878 108.1363 267.0752 105.375 267.0625 C103.5052 267.0575 101.6354 267.0529 99.7656 267.0488 C95.1771 267.0378 90.5885 267.021 86 267 C83.8621 261.4342 81.9058 255.8285 80.0586 250.1602 C79.7792 249.3066 79.4998 248.453 79.212 247.5736 C78.2848 244.7373 77.3609 241.9 76.4375 239.0625 C76.1132 238.0679 75.7889 237.0734 75.4548 236.0486 C69.7105 218.4222 64.116 200.7505 58.556 183.0653 C52.597 164.1127 46.514 145.2064 40.3135 126.3312 C34.8043 109.5598 29.3841 92.7622 24.0258 75.9419 C20.1368 63.7375 16.2107 51.5462 12.2188 39.375 C12.0202 38.7695 11.8217 38.1639 11.6172 37.54 C9.6778 31.6251 7.7355 25.7112 5.7843 19.8002 C4.9063 17.1383 4.0317 14.4753 3.1562 11.8125 C2.9957 11.3284 2.9957 11.3284 2.1835 8.8784 C1.8941 7.9969 1.6048 7.1153 1.3066 6.207 C1.0529 5.4385 0.7992 4.67 0.5377 3.8782 C0 2 0 2 0 0 Z " fill="#000000" transform="translate(20,164)" />
</svg>